# xmcd
#
# Track frame offsets:
#	150
#	15851
#	32523
#
# Disc length: 680 seconds
#
# Revision: 0
# Processed by: cddbd v1.5.2PL0 Copyright (c) Steve Scherf et al.
# Submitted via: audiograbber 1.83.01
#
DISCID=1002a603
DTITLE=Retropop - Pieni Ja Ihmeellinen [CDM)
DYEAR=2008
DGENRE=Synthpop
TTITLE0=Pieni Ja Ihmeellinen (Radio Edit)
TTITLE1=Pieni Ja Ihmeellinen (Dacia Remix)
TTITLE2=Pieni Ja Ihmeellinen (Majava Remix)
EXTD=TR.
EXTT0=
EXTT1=
EXTT2=
PLAYORDER=
